<?xml version="1.0" encoding="utf-8"?>
<svg width="200.572" height="180.01" viewBox="0 0 200.572 180.01" fill="none" xmlns="http://www.w3.org/2000/svg">
  <g transform="matrix(1 0 0 -1 0 180.01)">
    <path d="M61.5672 117.333C23.4005 107 -2.76618 70 0.233815 30.1667C1.23382 16 5.56715 0 8.23381 0C9.56715 0 9.56715 1.5 8.73381 4.66666C7.90048 7.16666 7.23381 17.8333 7.40048 28.3333C7.56715 45 8.06715 48.8333 11.9005 58.1667C24.5672 88.8333 49.5671 110.167 80.2338 116.667C85.4005 117.667 89.7338 118.833 89.7338 119.333C89.7338 121 69.9005 119.667 61.5672 117.333C61.5672 117.333 61.5672 117.333 61.5672 117.333Z" fill="#000000" transform="translate(9.407 59.931)" />
    <path d="M167.474 154.656C150.974 144.989 148.641 142.489 149.808 135.156C150.474 130.489 149.808 129.489 144.808 126.489C141.641 124.489 138.308 122.989 137.641 122.989C136.808 122.989 135.974 129.822 135.474 137.989C134.974 149.322 134.141 153.822 131.974 155.989C129.308 158.489 128.641 158.656 124.474 156.156C121.974 154.656 120.141 152.822 120.308 151.989C120.474 151.156 120.974 148.489 121.641 146.322C122.474 142.656 121.641 141.656 115.474 138.322C98.8078 129.156 70.1411 114.656 68.8078 114.656C68.1412 114.656 67.4745 116.489 67.4745 118.656C67.4745 124.989 64.6411 125.489 57.1411 120.489C51.4745 116.656 50.6411 115.489 51.4745 111.656C51.9745 109.156 54.1411 94.6558 56.1411 79.3225C58.3078 63.8225 60.4745 51.3225 61.1411 51.3225C61.8078 51.3225 68.8078 55.1558 76.8078 59.6558C90.1411 67.3225 98.4745 70.1558 97.1411 66.4892C96.8078 65.6558 88.4745 60.6558 78.3078 55.4892C68.3078 50.1558 55.4745 43.1558 49.9745 39.9892C24.8078 25.1558 20.1411 22.9892 18.8078 24.3225C17.1411 25.9892 24.8078 31.3225 32.9745 34.4892C39.4745 36.9892 36.9745 39.6558 28.1411 39.6558C9.30781 39.6558 -4.69219 23.6558 1.47448 8.98917C7.30781 -4.84416 32.9745 -2.1775 42.4745 13.3225C44.3078 16.3225 45.8078 20.6558 45.8078 22.9892C45.8078 26.1558 47.6411 28.3225 53.3078 31.8225C57.4745 34.3225 61.6411 36.3225 62.4745 36.3225C63.4745 36.3225 64.1411 33.3225 64.1411 29.8225C64.1411 26.1558 64.9745 21.1558 65.8078 18.8225C67.3078 14.9892 68.3078 14.4892 72.9745 15.1558C75.8078 15.4892 86.9745 19.8225 97.4745 24.4892C107.974 29.3225 120.474 34.6558 124.974 36.4892C129.641 38.4892 135.808 41.1558 138.974 42.6558C138.974 42.6558 144.641 45.3225 144.641 45.3225C144.641 45.3225 143.474 57.8225 143.474 57.8225C142.808 64.8225 141.308 78.8225 140.308 89.1558C140.308 89.1558 138.308 107.822 138.308 107.822C138.308 107.822 119.974 97.8225 119.974 97.8225C109.974 92.3225 100.641 88.3225 99.3078 88.8225C95.8078 90.1558 96.9745 90.9892 127.808 107.489C155.141 122.322 155.474 122.489 158.641 119.322C163.808 114.322 170.474 115.322 186.308 123.822C200.808 131.489 202.975 134.156 198.474 137.822C196.474 139.489 193.474 138.322 182.974 132.322C169.808 124.489 166.808 123.489 164.974 126.156C164.474 126.989 170.808 131.322 179.141 135.656C194.308 143.656 196.308 145.822 191.641 149.656C189.641 151.322 187.974 150.989 182.808 147.489C179.308 145.322 172.641 141.489 167.808 138.989C160.141 134.989 159.141 134.989 159.141 137.489C159.141 139.489 163.641 142.822 173.474 147.822C185.141 153.822 187.641 155.656 187.141 158.656C186.308 164.156 182.641 163.489 167.474 154.656C167.474 154.656 167.474 154.656 167.474 154.656ZM128.808 135.156C128.474 133.489 125.308 130.656 121.641 128.823C106.808 121.489 71.3078 102.323 67.1412 99.4892C61.8078 95.6558 60.8078 95.4892 60.8078 99.3225C60.8078 101.323 70.3078 107.323 93.8078 119.989C111.808 129.656 127.308 137.823 127.974 137.823C128.808 137.989 129.141 136.656 128.808 135.156C128.808 135.156 128.808 135.156 128.808 135.156ZM129.808 124.989C130.141 124.322 130.141 122.822 129.474 121.989C128.474 120.489 63.3078 84.6558 61.4745 84.6558C61.1411 84.6558 60.8078 86.1558 60.8078 87.9892C60.8078 89.8225 61.6411 91.3225 62.4745 91.3225C64.4745 91.3225 122.474 122.489 124.974 124.822C126.808 126.656 128.641 126.822 129.808 124.989C129.808 124.989 129.808 124.989 129.808 124.989ZM134.141 97.3225C134.141 95.9892 127.141 91.1558 118.808 86.6558C94.6411 73.6558 67.4745 59.6558 66.6412 59.6558C66.1412 59.6558 65.8078 60.8225 65.8078 62.1558C65.8078 63.4892 69.3078 66.3225 73.8078 68.4892C87.6411 75.3225 124.808 95.1558 128.308 97.4892C132.474 100.322 134.141 100.322 134.141 97.3225C134.141 97.3225 134.141 97.3225 134.141 97.3225ZM94.1412 90.6558C94.1412 87.1558 91.8078 85.1558 80.1412 78.9892C72.6412 74.6558 65.8078 71.3225 65.1412 71.3225C64.4745 71.3225 64.1412 73.3225 64.4745 75.6558C64.8078 79.3225 67.4745 81.3225 79.1412 87.3225C86.9745 91.3225 93.4745 94.6558 93.8078 94.6558C93.9745 94.6558 94.1412 92.8225 94.1412 90.6558C94.1412 90.6558 94.1412 90.6558 94.1412 90.6558ZM132.641 81.8225C130.308 77.4892 103.641 64.4892 102.141 66.8225C100.474 69.4892 101.808 70.4892 117.641 78.8225C131.474 85.9892 135.474 86.8225 132.641 81.8225C132.641 81.8225 132.641 81.8225 132.641 81.8225ZM137.474 73.3225C137.474 70.9892 128.808 65.6558 104.308 52.4892C85.9745 42.6558 70.6412 34.6558 69.9745 34.6558C69.3078 34.6558 69.1412 35.8225 69.4745 37.1558C69.8078 38.9892 120.141 67.9892 137.141 76.1558C137.308 76.1558 137.474 74.9892 137.474 73.3225C137.474 73.3225 137.474 73.3225 137.474 73.3225ZM137.141 60.3225C136.808 58.8225 131.808 54.9892 125.808 51.8225C119.808 48.6558 105.641 41.1558 94.1412 34.9892C70.8078 22.4892 69.1412 21.8225 69.1412 24.9892C69.1412 26.1558 78.6412 32.1558 90.4745 38.3225C102.141 44.4892 116.974 52.3225 123.308 55.9892C136.641 63.6558 137.974 63.9892 137.141 60.3225C137.141 60.3225 137.141 60.3225 137.141 60.3225ZM16.6412 22.9892C20.3078 18.9892 24.3078 18.8225 30.9745 22.1558C37.4745 25.6558 39.8078 23.9892 36.6412 18.1558C33.8078 12.4892 28.4745 8.8225 21.1412 7.15583C10.6411 4.98917 4.14115 13.6558 9.14115 23.1558C11.3078 27.1558 12.8078 27.1558 16.6412 22.9892C16.6412 22.9892 16.6412 22.9892 16.6412 22.9892Z" fill="#000000" transform="translate(0 6.942)" />
    <path d="M18.3858 31.4298C8.38577 26.2632 0.885773 21.5965 0.385773 19.7632C-0.780891 16.0965 0.885773 3.76317 2.88577 0.596497C3.88577 -1.23683 9.38577 0.92984 26.8858 10.2632C26.8858 10.2632 49.5524 22.0965 49.5524 22.0965C49.5524 22.0965 48.5524 27.4298 48.5524 27.4298C46.5524 37.9298 45.0524 40.2632 40.2191 40.0965C37.5524 40.0965 27.8858 36.2632 18.3858 31.4298C18.3858 31.4298 18.3858 31.4298 18.3858 31.4298ZM39.5524 31.4298C41.7191 28.7632 40.3858 26.9298 36.0524 26.9298C33.0524 26.9298 31.8858 30.2632 34.2191 32.4298C35.8858 34.0965 37.3858 33.7632 39.5524 31.4298C39.5524 31.4298 39.5524 31.4298 39.5524 31.4298ZM30.8858 25.9298C32.2191 22.2632 27.8858 19.7632 24.8858 22.5965C23.7191 23.9298 23.2191 25.7632 23.7191 26.7632C25.3858 29.4298 29.7191 28.9298 30.8858 25.9298C30.8858 25.9298 30.8858 25.9298 30.8858 25.9298ZM21.3858 20.2632C21.3858 18.0965 20.2191 16.9298 18.0524 16.9298C15.8858 16.9298 14.7191 18.0965 14.7191 20.2632C14.7191 22.4298 15.8858 23.5965 18.0524 23.5965C20.2191 23.5965 21.3858 22.4298 21.3858 20.2632C21.3858 20.2632 21.3858 20.2632 21.3858 20.2632ZM11.3858 15.2632C11.3858 13.4298 10.3858 11.9298 9.05244 11.9298C6.05244 11.9298 4.21911 14.5965 5.55244 16.9298C7.38577 19.9298 11.3858 18.7632 11.3858 15.2632C11.3858 15.2632 11.3858 15.2632 11.3858 15.2632Z" fill="#000000" transform="translate(67.755 128.002)" />
    <path d="M123.756 98.7648C123.922 75.5981 118.422 58.7648 105.089 41.0981C98.2556 32.0981 83.7556 20.4315 72.589 15.0981C55.4223 6.76479 27.9223 4.93145 8.42229 10.7648C4.25562 12.0981 0.422291 12.7648 0.0889587 12.4315C-1.41104 10.9315 16.4223 3.43145 26.089 1.59812C68.089 -6.73521 110.922 18.2648 124.922 59.2648C129.089 71.4315 130.422 94.0981 127.589 107.098C125.256 117.598 123.589 113.931 123.756 98.7648C123.756 98.7648 123.756 98.7648 123.756 98.7648Z" fill="#000000" transform="translate(61.052 0)" />
  </g>
</svg>